<svg width="32" height="31" viewBox="0 0 32 31" fill="none" xmlns="http://www.w3.org/2000/svg">
<path d="M32 15.5035C31.9981 24.061 24.8273 31.0026 15.9921 31C7.16045 30.997 -0.00690885 24.045 4.99778e-06 15.4875C0.00691885 6.93078 7.18427 -0.00892135 16.0179 8.60861e-06C24.843 0.00893857 32.0019 6.95385 32 15.5035ZM28.8066 15.5076C28.8077 8.66133 23.0796 3.10094 16.0171 3.09387C8.94346 3.08643 3.19574 8.64384 3.19305 15.4931C3.19036 22.345 8.93001 27.9076 16.0021 27.9069C23.0654 27.9061 28.8054 22.348 28.8066 15.5076Z" fill="#9E2033"/>
<path d="M16.0242 17.6563C15.3063 18.3536 14.6333 19.0077 13.9596 19.6607C13.3762 20.2267 12.7966 20.7967 12.2058 21.3555C11.7602 21.7771 11.2179 21.9018 10.6275 21.7317C10.0345 21.5606 9.65805 21.1595 9.53283 20.5708C9.41798 20.0306 9.56779 19.5502 9.97417 19.1558C11.1726 17.9927 12.3721 16.831 13.5721 15.6698C13.6254 15.618 13.69 15.5767 13.811 15.4826C13.7003 15.4112 13.6212 15.3762 13.5632 15.3208C12.3621 14.1606 11.1607 13.0001 9.96533 11.8343C9.52054 11.4005 9.39033 10.8703 9.56894 10.291C9.7437 9.7239 10.1528 9.36224 10.7516 9.23796C11.3166 9.12038 11.8179 9.26735 12.23 9.66585C13.4265 10.8219 14.6207 11.9802 15.8148 13.1385C15.869 13.191 15.9139 13.252 15.9792 13.3275C16.0537 13.259 16.1083 13.2111 16.1601 13.1608C17.3693 11.9906 18.575 10.8174 19.788 9.65097C20.2301 9.22568 20.7725 9.09917 21.364 9.26624C21.9582 9.43405 22.3369 9.83218 22.4652 10.4208C22.5846 10.9685 22.4306 11.4526 22.0189 11.8518C20.8293 13.0057 19.6386 14.1587 18.4479 15.3115C18.3891 15.368 18.3246 15.419 18.2477 15.4852C18.3107 15.5496 18.3564 15.5987 18.4041 15.6452C19.6167 16.8206 20.8328 17.993 22.0408 19.1729C22.4794 19.6012 22.6069 20.1281 22.4337 20.7007C22.2616 21.2685 21.856 21.6324 21.2572 21.7604C20.6926 21.8809 20.1894 21.7392 19.7769 21.3407C18.5704 20.1764 17.3674 19.0096 16.1644 17.842C16.1152 17.7944 16.0814 17.7326 16.0242 17.6563Z" fill="#9E2033"/>
</svg>
